<svg
  xmlns="http://www.w3.org/2000/svg"
  fill="none"
  stroke="currentColor"
  strokeWidth="2"
  viewBox="-22 -22 44 44"
>
  <path d="M -2.62667 6.84951 L 6.05568 -1.9175500000000003 L 3.6415599999999997 -4.28931 L -4.913729999999999 4.181279999999999 L -10.31402 -1.1418600000000012 L -10.31402 -1.1418600000000012 C -10.60755 -1.4312000000000011 -11.078959999999999 -1.4314400000000012 -11.372789999999998 -1.1423900000000011 L -15.66096 3.076049999999999 L -15.66096 3.076049999999999 C -15.76466 3.178059999999999 -15.82345 3.317189999999999 -15.82432 3.462649999999999 C -15.825190000000001 3.608119999999999 -15.76808 3.747939999999999 -15.665610000000001 3.851189999999999 L -5.738800000000001 13.854069999999998 L -5.738800000000001 13.854069999999998 C -5.542840000000001 14.051529999999998 -5.276230000000001 14.1627 -4.998040000000001 14.162949999999999 C -4.719850000000001 14.163199999999998 -4.453040000000001 14.05252 -4.256730000000001 13.85541 L 15.635259999999999 -6.11647 L 15.635259999999999 -6.11647 C 15.75672 -6.23841 15.824729999999999 -6.40363 15.824319999999998 -6.57574 C 15.823909999999998 -6.74785 15.755119999999998 -6.912739999999999 15.63309 -7.03411 L 8.61164 -14.0176 L 8.61164 -14.0176 C 8.41625 -14.21193 8.100389999999999 -14.21132 7.90576 -14.01623 L -4.7019899999999994 -1.378730000000001" />
</svg>